<svg xmlns="http://www.w3.org/2000/svg" viewBox="0 0 64 64">
  <rect width="64" height="64" rx="16" fill="#F2F6F9"/>
  <g transform="translate(5.4022,0.0435) scale(0.463054)" fill="#27282D">
    <path d="m87.72,70.36l-.02.02c-1.85-1.65-3.91-2.97-6.25-3.94-2.35-1-4.83-1.68-7.46-2.04-8.21-1.11-26.54-2.79-31.77-5.15-1.74-.79-2.95-1.79-3.55-2.97-.68-1.18-1-2.57-.92-4.18,0-2.15.57-3.93,1.67-5.37,1.17-1.43,2.63-2.57,4.48-3.43,1.92-.82,3.91-1.43,6.18-1.79,2.2-.36,4.44-.53,6.68-.53,4.8.03,8.7.64,11.9,1.9,3.16,1.25,5.51,2.9,7.14,4.9,1.63,2.07,2.47,4.38,2.58,6.89h13.61c-.28-3.58-1.01-6.89-2.47-9.86-1.53-2.97-3.73-5.54-6.54-7.76-2.88-2.18-6.43-3.86-10.73-5.04-4.3-1.22-9.42-1.83-15.39-1.87-6.75.04-12.61.97-17.55,2.83-4.94,1.86-8.71,4.54-11.34,8.01-2.66,3.51-4.05,7.73-4.05,12.63,0,2.82.57,5.33,1.63,7.58,1.03,2.22,2.45,4.15,4.3,5.79,1.78,1.61,3.87,2.93,6.26,3.93,2.34,1,4.8,1.65,7.39,2,8.14,1.11,16.2,2.22,24.27,3.29,3.27.46,5.76,1.11,7.53,1.89,1.74.79,2.88,1.75,3.52,2.93.67,1.18,1,2.58,1,4.22-.07,2.15-.71,4.33-1.85,5.76s-2.63,2.58-4.51,3.43c-4.51,2.04-10.73,2.61-15.6,2.65-4.37-.04-8.03-.5-10.94-1.4-2.95-.86-5.3-2.04-7.04-3.47-1.67-1.43-2.95-3.01-3.7-4.72-.71-1.68-1.27-3.44-1.27-5.12h-13.61c.36,4.22,1.27,7.88,2.84,10.85,1.53,2.97,3.55,5.43,6.04,7.33,2.52,1.9,5.29,3.4,8.39,4.47,3.06,1.07,6.25,1.82,9.63,2.25s6.75.65,10.06.61c10.63,0,24.31-2.08,31.2-11.12,2.67-3.51,4.12-8.12,4.12-13.06,0-2.79-.5-5.33-1.56-7.58-1.1-2.22-2.49-4.11-4.3-5.76Z"/>
  </g>
</svg>
